  <svg xmlns="http://www.w3.org/2000/svg" width="16" height="16" fill="currentColor" class="bi bi-currency-dollar" viewBox="0 0 16 16">
    <path d="M8.5 13c1.519 0 2.75-.881 2.75-2.25 0-1.293-1.007-1.987-2.383-2.28l-.955-.2c-1.104-.237-1.762-.71-1.762-1.52 0-.875.741-1.5 1.75-1.5.949 0 1.592.469 1.732 1.193h1.518c-.151-1.41-1.215-2.193-2.607-2.326V3.5H7v.647c-1.297.197-2.25 1.042-2.25 2.186 0 1.267.979 1.94 2.278 2.212l.955.2c1.077.226 1.722.71 1.722 1.551 0 .927-.784 1.5-1.905 1.5-1.044 0-1.707-.49-1.805-1.193H4.5c.12 1.364 1.189 2.26 2.5 2.42V13h1.5v-.647c1.437-.187 2.5-1.079 2.5-2.303 0-1.338-1.047-2.025-2.362-2.32l-.955-.2c-1.004-.214-1.683-.664-1.683-1.493 0-.892.759-1.5 1.75-1.5.952 0 1.562.452 1.683 1.193H10c-.133-1.373-1.205-2.139-2.5-2.306V3.5H7v.647C5.68 4.294 4.75 5.14 4.75 6.25c0 1.297.986 1.998 2.312 2.28l.938.2c1.028.225 1.75.732 1.75 1.52 0 .92-.759 1.5-1.75 1.5-1.024 0-1.62-.482-1.75-1.193H4.5c.133 1.392 1.221 2.206 2.5 2.326V13h1.5Z"/>
  </svg>